<svg width="46" height="43" viewBox="0 0 46 43" fill="none" xmlns="http://www.w3.org/2000/svg">
<path d="M15.2758 28.6667L9.58325 34.0417C8.95075 34.5792 8.10742 34.9375 7.18742 34.9375C6.29784 34.9375 5.44469 34.6072 4.81566 34.0192C4.18664 33.4312 3.83325 32.6336 3.83325 31.8021V31.3542L5.74992 18.1317C6.15242 13.9929 9.85159 10.75 14.3749 10.75H31.6249C36.1483 10.75 39.8474 13.9929 40.2499 18.1317L42.1666 31.3542V31.8021C42.1666 32.6336 41.8132 33.4312 41.1842 34.0192C40.5551 34.6072 39.702 34.9375 38.8124 34.9375C37.8924 34.9375 37.0491 34.5792 36.4166 34.0417L30.7241 28.6667H15.2758ZM13.4166 14.3333V17.9167H9.58325V19.7083H13.4166V23.2917H15.3333V19.7083H19.1666V17.9167H15.3333V14.3333H13.4166ZM31.6249 14.3333C31.2437 14.3333 30.878 14.4749 30.6085 14.7269C30.3389 14.9789 30.1874 15.3207 30.1874 15.6771C30.1874 16.0335 30.3389 16.3753 30.6085 16.6273C30.878 16.8793 31.2437 17.0208 31.6249 17.0208C32.0062 17.0208 32.3718 16.8793 32.6414 16.6273C32.911 16.3753 33.0624 16.0335 33.0624 15.6771C33.0624 15.3207 32.911 14.9789 32.6414 14.7269C32.3718 14.4749 32.0062 14.3333 31.6249 14.3333ZM28.2708 17.4688C27.8895 17.4688 27.5239 17.6103 27.2543 17.8623C26.9847 18.1143 26.8333 18.4561 26.8333 18.8125C26.8333 19.1689 26.9847 19.5107 27.2543 19.7627C27.5239 20.0147 27.8895 20.1562 28.2708 20.1562C28.652 20.1562 29.0176 20.0147 29.2872 19.7627C29.5568 19.5107 29.7083 19.1689 29.7083 18.8125C29.7083 18.4561 29.5568 18.1143 29.2872 17.8623C29.0176 17.6103 28.652 17.4688 28.2708 17.4688ZM34.9791 17.4688C34.5978 17.4688 34.2322 17.6103 33.9626 17.8623C33.693 18.1143 33.5416 18.4561 33.5416 18.8125C33.5416 19.1689 33.693 19.5107 33.9626 19.7627C34.2322 20.0147 34.5978 20.1562 34.9791 20.1562C35.3603 20.1562 35.726 20.0147 35.9956 19.7627C36.2651 19.5107 36.4166 19.1689 36.4166 18.8125C36.4166 18.4561 36.2651 18.1143 35.9956 17.8623C35.726 17.6103 35.3603 17.4688 34.9791 17.4688ZM31.6249 20.6042C31.2437 20.6042 30.878 20.7457 30.6085 20.9977C30.3389 21.2497 30.1874 21.5915 30.1874 21.9479C30.1874 22.3043 30.3389 22.6461 30.6085 22.8981C30.878 23.1501 31.2437 23.2917 31.6249 23.2917C32.0062 23.2917 32.3718 23.1501 32.6414 22.8981C32.911 22.6461 33.0624 22.3043 33.0624 21.9479C33.0624 21.5915 32.911 21.2497 32.6414 20.9977C32.3718 20.7457 32.0062 20.6042 31.6249 20.6042Z" fill="black"/>
</svg>
