<svg width="44" height="34" viewBox="0 0 44 34" fill="none" xmlns="http://www.w3.org/2000/svg">
<path d="M43.661 15.47H22.9379V20.111H37.6497C36.904 26.588 29.7401 29.359 22.9605 29.359C14.3051 29.359 6.71186 24.225 6.71186 17C6.71186 10.03 13.9435 4.641 22.9831 4.641C29.9661 4.641 34.0565 7.99 34.0565 7.99L38.3503 4.624C38.3503 4.624 32.8362 0 22.7571 0C9.92091 0 0 8.16 0 17C0 25.585 9.33333 34 23.096 34C35.1864 34 44 27.761 44 18.547C44 16.592 43.661 15.47 43.661 15.47Z" fill="black"/>
</svg>
