<svg width="37" height="32" viewBox="0 0 37 32" fill="none" xmlns="http://www.w3.org/2000/svg">
<path d="M35.6339 18.3265C35.7967 20.9017 34.5127 23.3773 32.216 24.8891L33.6085 27.3647C34.0244 28.1123 34.0787 28.9928 33.717 29.7737C33.3734 30.5546 32.6681 31.1693 31.8 31.4351L30.3713 31.8505C30.0639 31.9502 29.7203 32 29.3948 32C28.4725 32 27.6044 31.6179 27.0076 30.9367L23.1737 26.7832C21.5642 26.5339 20.0451 25.9026 18.7611 24.9556C17.8568 25.2048 16.9526 25.3377 16.0484 25.3377C14.4569 25.3377 12.8655 24.8891 11.5272 24.0252C10.5688 24.291 9.59219 24.4073 8.59754 24.3907C7.16886 24.4073 5.75827 24.1415 4.43809 23.6431C1.852 22.5798 0.133971 20.2538 0.0435487 17.6454C-0.101128 16.4491 0.115887 15.2363 0.676508 14.1398C0.152056 12.8937 0.0978023 11.5314 0.549916 10.2687C1.21904 8.69033 2.48496 7.37781 4.05832 6.54711C5.10722 3.73931 8.055 1.86191 11.2921 2.06128C14.1857 -0.430844 18.6164 -0.69667 21.8354 1.44656C22.595 1.2638 23.3907 1.16412 24.1864 1.16412C26.6459 1.11427 28.9788 2.11112 30.516 3.88884C34.2053 4.76939 36.8456 7.79317 36.9903 11.3154C37.0807 13.1595 36.5382 14.9705 35.435 16.5156C35.5616 17.1137 35.6339 17.7118 35.6339 18.3265ZM26.5917 15.9839C27.6225 16.1002 28.4363 16.8147 28.4363 17.7617C28.4363 18.2023 28.2458 18.6249 27.9066 18.9365C27.5675 19.248 27.1075 19.4231 26.6278 19.4231H25.4885C24.9098 20.9184 23.8971 22.2309 22.5588 23.2277C23.0109 23.3773 23.4811 23.4603 23.9513 23.5766C33.2287 23.4603 32.1436 18.2601 32.1436 18.177C32.0351 15.8012 29.865 13.9404 27.2789 14.0401C26.7992 14.0401 26.3393 13.865 26.0001 13.5535C25.661 13.2419 25.4704 12.8193 25.4704 12.3787C25.4704 11.938 25.661 11.5155 26.0001 11.2039C26.3393 10.8923 26.7992 10.7173 27.2789 10.7173C29.5033 10.7671 31.6373 11.5314 33.301 12.8771C33.3915 12.3953 33.4457 11.8969 33.4457 11.3984C33.3372 9.33828 32.3245 7.54395 28.2554 7.19506C25.9949 2.27726 20.2982 5.00199 20.2982 6.53049C20.244 6.91262 20.678 7.72671 20.7504 7.77655C21.23 7.77655 21.69 7.95159 22.0291 8.26317C22.3683 8.57475 22.5588 8.99733 22.5588 9.43797C22.5588 10.3517 21.745 11.0994 20.7504 11.0994C19.7919 11.0662 18.8877 10.7339 18.1643 10.169C17.2962 10.684 16.3016 10.9997 15.2707 11.0994C14.2399 11.1825 13.3899 10.5179 13.3357 9.60411C13.191 8.67372 13.9325 7.85962 14.9271 7.77655C15.2165 7.74332 16.6271 7.54395 16.6271 6.49726C16.6271 5.40073 17.0792 4.35404 17.8568 3.52333C16.1931 3.10797 14.4027 3.65624 12.5942 5.66655C9.26667 5.18474 7.91033 5.6001 6.91568 8.83986C5.19765 9.62072 4.29342 10.169 3.89556 11.8304C5.84869 11.4649 7.85608 11.6144 9.71878 12.2458C10.623 12.5614 11.1294 13.4918 10.7858 14.389C10.4422 15.2529 9.39326 15.6849 8.45286 15.3692C7.13269 14.8376 5.64976 14.8043 4.29342 15.2695C3.71471 15.7181 3.71471 16.6485 3.71471 17.3795C3.71471 18.609 4.38384 19.7554 5.52317 20.4199C6.48165 20.8685 7.54864 21.1011 8.61563 21.0845C8.34436 20.6525 8.10926 20.2039 7.91033 19.7387C7.56672 18.8416 8.09117 17.8613 9.06774 17.5457C10.0443 17.23 11.1113 17.7118 11.4549 18.609C12.1783 20.503 14.0229 21.7989 16.1931 22.0149C18.6706 21.8986 20.877 20.5528 21.962 18.4761C22.378 16.1833 24.3854 15.9839 26.5917 15.9839ZM30.2086 28.3947L29.0873 26.2349L27.8033 26.5007L29.6118 28.5775L30.2086 28.3947ZM21.7993 14.0899C21.8354 13.2094 21.1121 12.4617 20.1536 12.3787C18.8696 12.3122 17.6217 12.711 16.6633 13.4918C15.6324 14.4554 15.0899 15.7846 15.1441 17.1303C15.1441 17.571 15.3347 17.9935 15.6738 18.3051C16.013 18.6167 16.473 18.7917 16.9526 18.7917C17.9834 18.7917 18.7611 18.0441 18.7611 17.1303C18.7611 16.6817 18.8877 16.2332 19.177 15.8677C19.394 15.7015 19.6653 15.6184 19.9546 15.6184C20.9493 15.6683 21.7993 14.9871 21.7993 14.0899Z" fill="white"/>
</svg>
