<svg width="81" height="72" viewBox="0 0 81 72" fill="none" xmlns="http://www.w3.org/2000/svg">
<path d="M78.0094 41.2347C78.3658 47.0289 75.5548 52.5988 70.5268 56.0006L73.5753 61.5705C74.4859 63.2526 74.6047 65.2339 73.8129 66.9908C73.0606 68.7478 71.5166 70.1309 69.6163 70.729L66.4886 71.6636C65.8156 71.8879 65.0633 72 64.3507 72C62.3316 72 60.4313 71.1402 59.1248 69.6076L50.7316 60.2621C47.208 59.7014 43.8824 58.2809 41.0715 56.1501C39.092 56.7108 37.1125 57.0099 35.1329 57.0099C31.649 57.0099 28.165 56.0006 25.2353 54.0567C23.137 54.6548 20.9991 54.9165 18.8216 54.8791C15.694 54.9165 12.6059 54.3184 9.71583 53.1969C4.05439 50.8045 0.293289 45.571 0.0953363 39.7021C-0.221388 37.0106 0.253698 34.2817 1.481 31.8145C0.332879 29.0109 0.214108 25.9455 1.20387 23.1045C2.66872 19.5532 5.44005 16.6001 8.88443 14.731C11.1807 8.41345 17.6339 4.1893 24.7206 4.63788C31.0551 -0.969398 40.7548 -1.56751 47.8019 3.25475C49.4647 2.84355 51.2067 2.61926 52.9487 2.61926C58.333 2.50712 63.4401 4.75003 66.8053 8.74989C74.8818 10.7311 80.662 17.5346 80.9787 25.4596C81.1767 29.609 79.989 33.6836 77.574 37.1601C77.8511 38.5058 78.0094 39.8516 78.0094 41.2347ZM58.2142 35.9639C60.4709 36.2256 62.2524 37.833 62.2524 39.9637C62.2524 40.9552 61.8353 41.906 61.0928 42.607C60.3504 43.3081 59.3434 43.7019 58.2934 43.7019H55.7992C54.5323 47.0663 52.3152 50.0195 49.3855 52.2624C50.3753 52.5988 51.4046 52.7857 52.434 53.0474C72.7439 52.7857 70.3685 41.0852 70.3685 40.8983C70.1309 35.5527 65.3801 31.3659 59.7186 31.5902C58.6686 31.5902 57.6616 31.1964 56.9192 30.4953C56.1767 29.7943 55.7596 28.8434 55.7596 27.852C55.7596 26.8606 56.1767 25.9098 56.9192 25.2087C57.6616 24.5077 58.6686 24.1138 59.7186 24.1138C64.5883 24.226 69.2599 25.9455 72.9023 28.9735C73.1002 27.8894 73.219 26.7679 73.219 25.6465C72.9815 21.0111 70.7644 16.9739 61.8565 16.1889C56.9077 5.12385 44.4367 11.2545 44.4367 14.6936C44.3179 15.5534 45.2681 17.3851 45.4265 17.4972C46.4765 17.4972 47.4835 17.8911 48.2259 18.5921C48.9684 19.2932 49.3855 20.244 49.3855 21.2354C49.3855 23.2914 47.6039 24.9736 45.4265 24.9736C43.3282 24.8989 41.3486 24.1512 39.765 22.8802C37.8647 24.0391 35.6872 24.7493 33.4305 24.9736C31.1739 25.1605 29.3131 23.6653 29.1944 21.6092C28.8776 19.5159 30.5008 17.6842 32.6783 17.4972C33.3118 17.4225 36.3998 16.9739 36.3998 14.6188C36.3998 12.1516 37.3896 9.79658 39.092 7.92749C35.4497 6.99294 31.5302 8.22654 27.5711 12.7497C20.2865 11.6657 17.3172 12.6002 15.1397 19.8897C11.3786 21.6466 9.39911 22.8802 8.52811 26.6184C12.8039 25.796 17.1984 26.1325 21.2763 27.553C23.2558 28.2632 24.3643 30.3566 23.6121 32.3752C22.8599 34.3191 20.5636 35.291 18.5049 34.5808C15.6148 33.3845 12.3684 33.3098 9.39911 34.3565C8.13221 35.3658 8.13221 37.4592 8.13221 39.104C8.13221 41.8702 9.59706 44.4496 12.0913 45.9448C14.1896 46.9542 16.5254 47.4775 18.8612 47.4401C18.2674 46.4682 17.7527 45.4589 17.3172 44.4122C16.565 42.3936 17.7131 40.188 19.851 39.4778C21.9889 38.7675 24.3247 39.8516 25.0769 41.8702C26.6606 46.1317 30.6988 49.0475 35.4497 49.5335C40.8736 49.2718 45.7036 46.2439 48.079 41.5712C48.9896 36.4125 53.3842 35.9639 58.2142 35.9639ZM66.1323 63.8881L63.6777 59.0285L60.8668 59.6266L64.8258 64.2993L66.1323 63.8881ZM47.7227 31.7024C47.8019 29.7211 46.2183 28.0389 44.12 27.852C41.3091 27.7025 38.5773 28.5997 36.479 30.3566C34.2224 32.5248 33.0346 35.5153 33.1534 38.5432C33.1534 39.5347 33.5705 40.4855 34.313 41.1865C35.0555 41.8876 36.0625 42.2814 37.1125 42.2814C39.3691 42.2814 41.0715 40.5992 41.0715 38.5432C41.0715 37.5339 41.3486 36.5246 41.9821 35.7022C42.4572 35.3284 43.051 35.1415 43.6845 35.1415C45.862 35.2536 47.7227 33.721 47.7227 31.7024Z" fill="black"/>
</svg>
