<svg width="44" height="34" viewBox="0 0 44 34" fill="none" xmlns="http://www.w3.org/2000/svg">
<path d="M9.746 2.924C9.9 2.822 10.054 2.72 10.164 2.652C13.596 0.935 17.6 0 22 0C26.136 0 30.008 0.85 33.308 2.414C33.55 2.55 34.188 2.873 34.54 3.196C31.35 0.476 22 6.29 22 6.29C18.7 4.369 15.774 3.06 13.552 2.55C11.682 2.193 10.406 2.55 9.812 2.89M38.148 5.457C38.038 5.372 37.928 5.287 37.84 5.202C37.048 4.522 36.036 4.352 35.2 4.403C34.342 4.607 30.58 5.644 25.96 9.027C25.96 9.027 31.174 12.937 34.364 16.932C37.554 20.927 39.446 24.072 38.28 28.441C41.8 25.415 44 21.403 44 17C44 12.546 41.8 8.5 38.148 5.457ZM30.206 18.632C28.776 17.408 26.686 15.657 23.892 13.515C23.298 13.056 22.66 12.58 22 12.07C22 12.07 20.966 12.852 19.646 13.889C17.952 15.198 15.774 16.915 14.542 17.918C12.386 19.703 6.182 25.313 5.83 28.458C5.83 28.458 4.4 25.976 7.48 20.213C9.46 16.456 15.4 10.812 17.93 8.976C17.93 8.976 15.664 7.038 12.804 5.695L12.694 5.644C11.308 5.015 9.812 4.522 8.36 4.454C6.886 4.539 5.962 5.372 5.962 5.372C2.266 8.415 0 12.495 0 17C0 21.5087 2.31785 25.8327 6.44365 29.0208C8.48654 30.5994 10.9118 31.8516 13.581 32.706C16.2501 33.5603 19.1109 34 22 34C28.446 34 34.254 31.858 38.28 28.441C38.28 28.441 37.818 26.18 34.848 22.95C34.166 22.219 31.614 19.873 30.206 18.632Z" fill="black"/>
</svg>
